<svg width="1024" height="108" viewBox="0 0 1024 108" fill="none" xmlns="http://www.w3.org/2000/svg">
<path d="M934.5 92.8033C979.5 116.577 1012.97 109.223 1024 92.8033L1024 0H512H0V92.8033C0 92.8033 31 105.277 72 72.3468C72 72.3468 129.5 24.4482 181.5 24.4482H181.738C214.377 24.4481 239.062 24.448 292 45.404C352.5 69.3534 379.5 86.8161 462 72.3468C517.5 62.613 572.5 14.4693 625 45.404C660.5 66.3217 687 92.8033 758.5 67.8562C805.5 51.4574 834.304 48.5675 865 58.8752C903.604 71.8384 898.283 73.6698 934.5 92.8033Z" fill="#F5F5F5"/>
</svg>
