<svg width="1024" height="127" viewBox="0 0 1024 127" fill="none" xmlns="http://www.w3.org/2000/svg">
<path d="M56.5958 0C31.6553 0 11.0314 17.5452 -3.46355e-06 34L0 127H512H1024V34C1024 34 986.43 64.5 935.835 82.5C935.835 82.5 864.702 112.628 768.021 108.5C708.541 105.96 644.529 101.464 603.714 68C533.583 10.5 450.58 44.5 399.236 68C391.242 68.7217 350.291 89.5 310.943 55.5C297.643 44.0076 286.937 14.5406 256.72 24.5C224.278 35.193 187.608 52.8296 156.912 42.5C118.308 29.5094 97.575 6.24564e-10 56.5958 0Z" fill="#F5F5F5"/>
</svg>
