<svg width="24" height="25" viewBox="0 0 24 25" fill="none" xmlns="http://www.w3.org/2000/svg">
<g clip-path="url(#clip0_9_30)">
<path d="M22.2254 0.133957H1.77465C1.54476 0.130783 1.3165 0.172653 1.1029 0.257176C0.889292 0.341698 0.694531 0.467217 0.529735 0.626564C0.36494 0.785911 0.233338 0.975967 0.142445 1.18587C0.0515522 1.39578 0.00314897 1.62143 0 1.84993V22.4176C0.00314897 22.6461 0.0515522 22.8718 0.142445 23.0817C0.233338 23.2916 0.36494 23.4817 0.529735 23.641C0.694531 23.8004 0.889292 23.9259 1.1029 24.0104C1.3165 24.0949 1.54476 24.1368 1.77465 24.1336H22.2254C22.4552 24.1368 22.6835 24.0949 22.8971 24.0104C23.1107 23.9259 23.3055 23.8004 23.4703 23.641C23.6351 23.4817 23.7667 23.2916 23.8576 23.0817C23.9484 22.8718 23.9969 22.6461 24 22.4176V1.84993C23.9969 1.62143 23.9484 1.39578 23.8576 1.18587C23.7667 0.975967 23.6351 0.785911 23.4703 0.626564C23.3055 0.467217 23.1107 0.341698 22.8971 0.257176C22.6835 0.172653 22.4552 0.130783 22.2254 0.133957ZM7.27968 20.2217H3.65795V9.42183H7.27968V20.2217ZM5.46881 7.90985C4.96933 7.90985 4.49031 7.71262 4.13712 7.36156C3.78393 7.0105 3.58551 6.53435 3.58551 6.03787C3.58551 5.5414 3.78393 5.06525 4.13712 4.71419C4.49031 4.36313 4.96933 4.1659 5.46881 4.1659C5.73404 4.136 6.00263 4.16213 6.25699 4.24256C6.51136 4.32299 6.74576 4.45592 6.94486 4.63265C7.14395 4.80937 7.30325 5.0259 7.41232 5.26806C7.52139 5.51022 7.57777 5.77255 7.57777 6.03787C7.57777 6.30319 7.52139 6.56552 7.41232 6.80768C7.30325 7.04985 7.14395 7.26638 6.94486 7.4431C6.74576 7.61982 6.51136 7.75276 6.25699 7.83319C6.00263 7.91362 5.73404 7.93975 5.46881 7.90985ZM20.3421 20.2217H16.7203V14.4258C16.7203 12.9738 16.2012 12.0258 14.8853 12.0258C14.4781 12.0288 14.0815 12.1557 13.7491 12.3896C13.4167 12.6235 13.1644 12.953 13.0262 13.3338C12.9317 13.6158 12.8907 13.9129 12.9054 14.2098V20.2097H9.2837C9.2837 20.2097 9.2837 10.3938 9.2837 9.40983H12.9054V10.9338C13.2344 10.3663 13.713 9.89884 14.2895 9.58167C14.866 9.26449 15.5186 9.10965 16.1771 9.13383C18.5915 9.13383 20.3421 10.6818 20.3421 14.0058V20.2217Z" fill="white"/>
</g>
<defs>
<clipPath id="clip0_9_30">
<rect width="24" height="24" fill="white" transform="translate(0 0.133789)"/>
</clipPath>
</defs>
</svg>
