<svg width="20" height="20" viewBox="0 0 20 20" fill="none" xmlns="http://www.w3.org/2000/svg">
<g clip-path="url(#clip0_11_2322)">
<g clip-path="url(#clip1_11_2322)">
<path d="M18.5211 -1.276e-05H1.47887C1.2873 -0.00265734 1.09708 0.0322344 0.91908 0.10267C0.741077 0.173105 0.578776 0.277704 0.441446 0.410493C0.304116 0.543283 0.194448 0.701662 0.118704 0.876585C0.0429602 1.05151 0.00262414 1.23955 0 1.42997V18.5697C0.00262414 18.7601 0.0429602 18.9482 0.118704 19.1231C0.194448 19.298 0.304116 19.4564 0.441446 19.5892C0.578776 19.722 0.741077 19.8266 0.91908 19.897C1.09708 19.9675 1.2873 20.0024 1.47887 19.9997H18.5211C18.7127 20.0024 18.9029 19.9675 19.0809 19.897C19.2589 19.8266 19.4212 19.722 19.5586 19.5892C19.6959 19.4564 19.8056 19.298 19.8813 19.1231C19.957 18.9482 19.9974 18.7601 20 18.5697V1.42997C19.9974 1.23955 19.957 1.05151 19.8813 0.876585C19.8056 0.701662 19.6959 0.543283 19.5586 0.410493C19.4212 0.277704 19.2589 0.173105 19.0809 0.10267C18.9029 0.0322344 18.7127 -0.00265734 18.5211 -1.276e-05ZM6.0664 16.7398H3.04829V7.73988H6.0664V16.7398ZM4.55734 6.4799C4.14111 6.4799 3.74192 6.31554 3.4476 6.02299C3.15328 5.73044 2.98793 5.33365 2.98793 4.91992C2.98793 4.50619 3.15328 4.1094 3.4476 3.81685C3.74192 3.5243 4.14111 3.35994 4.55734 3.35994C4.77837 3.33503 5.00219 3.35679 5.21416 3.42382C5.42613 3.49085 5.62147 3.60163 5.78738 3.7489C5.95329 3.89617 6.08604 4.07661 6.17693 4.27841C6.26782 4.48021 6.31481 4.69882 6.31481 4.91992C6.31481 5.14102 6.26782 5.35963 6.17693 5.56143C6.08604 5.76323 5.95329 5.94367 5.78738 6.09094C5.62147 6.23821 5.42613 6.34899 5.21416 6.41601C5.00219 6.48304 4.77837 6.50481 4.55734 6.4799ZM16.9517 16.7398H13.9336V11.9098C13.9336 10.6998 13.501 9.90985 12.4044 9.90985C12.0651 9.91232 11.7346 10.0181 11.4576 10.213C11.1806 10.4079 10.9703 10.6825 10.8551 10.9998C10.7764 11.2349 10.7423 11.4824 10.7545 11.7298V16.7298H7.73642C7.73642 16.7298 7.73642 8.54987 7.73642 7.72988H10.7545V8.99986C11.0287 8.52697 11.4275 8.13739 11.9079 7.87308C12.3883 7.60877 12.9322 7.47973 13.4809 7.49988C15.493 7.49988 16.9517 8.78987 16.9517 11.5598V16.7398Z" fill="#141628"/>
</g>
</g>
<defs>
<clipPath id="clip0_11_2322">
<rect width="20" height="20" fill="white"/>
</clipPath>
<clipPath id="clip1_11_2322">
<rect width="20" height="20" fill="white"/>
</clipPath>
</defs>
</svg>
